<svg id="Capa_1" data-name="Capa 1" xmlns="http://www.w3.org/2000/svg" viewBox="0 0 672.76 467.29"><defs><style>.cls-1{fill:#fff;}</style></defs><path class="cls-1" d="M368.91,276l2.4,123.54-95.52,70.73a39.13,39.13,0,0,0-1.29,61.89l99.3,80.18,2.33,111.1L178,566.47a35.76,35.76,0,0,1-13.55-27.37l-1.56-83.24a44.83,44.83,0,0,1,17.66-36.51Z" transform="translate(-162.9 -265.85)"/><path class="cls-1" d="M818,417.35a44.87,44.87,0,0,1,17.67,36.51l-1.57,83.24a35.76,35.76,0,0,1-13.55,27.37l-198.11,157,2.33-111.1,99.3-80.18a39.13,39.13,0,0,0-1.29-61.89l-95.52-70.73L629.65,274Z" transform="translate(-162.9 -265.85)"/><path class="cls-1" d="M466,733.15l-5.37-467.3h75.8L539,732.15Z" transform="translate(-162.9 -265.85)"/></svg>